<svg width="136" height="117" viewBox="0 0 136 117" fill="none" xmlns="http://www.w3.org/2000/svg">
<path d="M82.997 56.1481C82.997 56.1481 82.2195 55.8768 81.8564 55.3338C81.4933 54.7914 80.1458 54.194 79.0052 54.194C77.8646 54.194 76.5172 54.7908 76.154 55.3338C75.7914 55.8768 75.0135 56.1481 75.0135 56.1481M74.6339 54.9409C74.6339 54.9409 76.1408 53.5975 76.8335 53.1904C77.5256 52.7833 79.449 52.5797 80.2387 52.9463C81.0284 53.3129 82.4948 54.9409 82.4948 54.9409M73.9818 62.4285C73.9818 62.4285 74.9187 63.2428 74.715 64.3416C74.5113 65.4404 73.4118 65.3184 72.6376 65.3594C71.8638 65.3999 71.4565 66.3772 70.6012 66.3362C69.7459 66.3767 69.3385 65.3999 68.5648 65.3594C67.791 65.3184 66.691 65.4409 66.4873 64.3416C66.2836 63.2422 67.2205 62.4285 67.2205 62.4285M69.6633 64.6265C69.6633 64.6265 68.8485 64.26 69.1743 62.7952C69.5001 61.33 69.9481 61.6556 69.9481 59.3362C69.9481 57.0163 69.9481 54.1946 69.9481 54.1946M75.2037 69.5285C75.2037 69.5285 74.1868 69.647 73.5336 69.6166C72.8809 69.5862 72.5924 69.4062 72.1035 69.4265C71.126 69.4671 71.1714 69.7934 70.6008 69.8142C70.0308 69.7939 70.0761 69.4676 69.0982 69.4265C68.6092 69.4062 68.3207 69.5862 67.6681 69.6166C67.0154 69.647 65.998 69.5285 65.998 69.5285M73.0856 68.8181C73.0856 68.8181 72.0677 68.289 71.7824 68.3705C71.4971 68.452 70.6013 69.1032 70.6013 69.1032C70.6013 69.1032 69.7055 68.452 69.4202 68.3705C69.1349 68.289 68.117 68.8181 68.117 68.8181M73.6981 70.2019C73.6981 70.2019 71.8654 71.4232 70.6027 71.4232C69.34 71.4232 67.5073 70.2019 67.5073 70.2019M73.6957 50.6669C73.6957 50.6669 77.1579 47.2479 83.3487 50.6669M58.8151 56.1481C58.8151 56.1481 59.5926 55.8768 59.9557 55.3338C60.3183 54.7914 61.6663 54.194 62.8069 54.194C63.9474 54.194 65.2949 54.7908 65.658 55.3338C66.0212 55.8768 66.7986 56.1481 66.7986 56.1481M67.1802 54.9409C67.1802 54.9409 65.6733 53.5975 64.9807 53.1904C64.288 52.7833 62.3652 52.5797 61.5755 52.9463C60.7858 53.3129 59.3194 54.9409 59.3194 54.9409M68.1167 50.6669C68.1167 50.6669 64.655 47.2479 58.4637 50.6669M88.2878 48.6804C93.8824 58.2682 90.6392 70.5723 81.044 76.1625C71.4488 81.7526 59.1351 78.512 53.5406 68.9242C47.946 59.3365 51.1892 47.0324 60.7844 41.4422C70.3796 35.852 82.6933 39.0927 88.2878 48.6804ZM73.684 38.9094C73.386 31.3674 72.681 23.8632 71.5714 16.4571L70.9059 12.0161L70.2405 16.4571C69.1308 23.8632 68.4259 31.3668 68.1278 38.9094C69.0364 38.7836 69.9626 38.7138 70.9059 38.7138C71.8492 38.7138 72.7754 38.7836 73.684 38.9094ZM68.1313 78.7228C68.4294 86.2648 69.1343 93.7689 70.2439 101.175L70.9094 105.616L71.5749 101.175C72.6845 93.7689 73.3895 86.2653 73.6875 78.7228C72.7789 78.8486 71.8527 78.9184 70.9094 78.9184C69.9661 78.9184 69.0399 78.8486 68.1313 78.7228ZM90.8304 61.5915C98.3782 61.2941 105.888 60.5897 113.3 59.4802L117.745 58.8151L113.3 58.1501C105.888 57.0412 98.3787 56.3367 90.8304 56.0388C90.9562 56.9468 91.0261 57.8725 91.0261 58.8151C91.0261 59.7578 90.9557 60.6834 90.8304 61.5915ZM50.985 56.0417C43.4371 56.3396 35.9277 57.0441 28.5153 58.153L24.0708 58.8181L28.5153 59.4831C35.9272 60.592 43.4366 61.2965 50.985 61.5944C50.8591 60.6864 50.7893 59.7607 50.7893 58.8181C50.7898 57.8759 50.8597 56.9498 50.985 56.0417ZM62.8109 32.8519C59.948 31.4809 57.2045 28.4231 56.587 25.4628C55.9696 22.5025 55.0615 18.1846 50.9887 18.3215C50.9887 18.3215 54.4611 20.5833 54.3411 24.4228C54.2579 27.0954 53.0891 30.3839 55.2156 32.6457C57.3416 34.9075 59.322 37.0206 59.322 39.4993C59.322 41.6923 58.4667 43.0217 58.4667 43.0217L58.4822 43.0153C61.216 40.8643 64.5194 39.4076 68.1315 38.9084C68.1315 38.9084 66.4358 34.5878 62.8109 32.8519ZM79.0064 32.8518C81.8693 31.4808 84.6128 28.423 85.2303 25.4627C85.8478 22.5024 86.7564 18.1845 90.8286 18.3214C90.8286 18.3214 87.3563 20.5832 87.4762 24.4226C87.5594 27.0952 88.7283 30.3838 86.6023 32.6456C84.4758 34.9074 82.4959 37.0205 82.4959 39.4991C82.4959 41.6922 83.3512 43.0216 83.3512 43.0216L83.3357 43.0152C80.6019 40.8642 77.2985 39.4075 73.6864 38.9083C73.6864 38.9083 75.3816 34.5877 79.0064 32.8518ZM79.0053 84.7478C81.8682 86.1187 84.6116 89.1765 85.2291 92.1368C85.8466 95.0971 86.7552 99.4151 90.828 99.2781C90.828 99.2781 87.3556 97.0163 87.4756 93.1769C87.5588 90.5043 88.7276 87.2152 86.6011 84.954C84.4746 82.6922 82.4947 80.579 82.4947 78.1004C82.4947 75.9073 83.35 74.578 83.35 74.578L83.3346 74.5843C80.6007 76.7353 77.2974 78.192 73.6853 78.6913C73.6853 78.6913 75.3799 83.0119 79.0053 84.7478ZM62.8098 84.7478C59.9469 86.1187 57.2029 89.1765 56.5859 92.1368C55.9684 95.0971 55.0598 99.4151 50.9875 99.2781C50.9875 99.2781 54.4599 97.0163 54.34 93.1769C54.2568 90.5043 53.0879 87.2152 55.2144 84.954C57.341 82.6922 59.3209 80.579 59.3209 78.1004C59.3209 75.9073 58.4656 74.578 58.4656 74.578L58.481 74.5843C61.2149 76.7353 64.5182 78.192 68.1303 78.6913C68.1303 78.6913 66.4347 83.0119 62.8098 84.7478ZM58.7808 42.7784C53.2331 37.6554 47.4246 32.8478 41.3986 28.3951L37.7854 25.7252L40.4575 29.3361C44.9137 35.3574 49.7255 41.1613 54.852 46.7047C55.4055 45.9737 56.0112 45.2699 56.6783 44.6038C57.3453 43.9368 58.0497 43.3315 58.7808 42.7784ZM83.028 74.854C88.5757 79.9765 94.3842 84.7846 100.41 89.2373L104.023 91.9078L101.351 88.2969C96.8951 82.2756 92.0833 76.4716 86.9568 70.9282C86.4033 71.6593 85.7976 72.3631 85.1305 73.0291C84.4635 73.6957 83.7591 74.3009 83.028 74.854ZM86.9557 46.7017C92.0827 41.1584 96.894 35.3544 101.35 29.3331L104.022 25.7227L100.409 28.3927C94.383 32.8454 88.5746 37.6535 83.0268 42.776C83.7584 43.329 84.4629 43.9343 85.1294 44.6009C85.7965 45.2669 86.4017 45.9713 86.9557 46.7017ZM54.8543 70.9303C49.7273 76.4737 44.916 82.2776 40.4598 88.2989L37.7878 91.9093L41.4014 89.2394C47.4275 84.7866 53.2359 79.9785 58.7836 74.856C58.0521 74.303 57.3477 73.6977 56.6811 73.0312C56.0135 72.3651 55.4078 71.6613 54.8543 70.9303ZM96.8804 50.7084C98.2524 47.8477 101.313 45.1064 104.275 44.4894C107.238 43.8724 111.559 42.9645 111.422 38.8949C111.422 38.8949 109.159 42.3645 105.316 42.2447C102.641 42.1615 99.3504 40.9936 97.0868 43.1185C94.8233 45.2428 92.7085 47.2217 90.2274 47.2217C88.0326 47.2217 86.7022 46.367 86.7022 46.367L86.7086 46.3825C88.8612 49.1142 90.3191 52.415 90.8187 56.0243C90.8187 56.0243 95.1432 54.331 96.8804 50.7084ZM96.8804 66.8927C98.2524 69.7533 101.313 72.4947 104.275 73.1117C107.238 73.7287 111.559 74.6366 111.422 78.7057C111.422 78.7057 109.159 75.236 105.316 75.3559C102.641 75.439 99.3504 76.6069 97.0868 74.4826C94.8233 72.3577 92.7085 70.3794 90.2274 70.3794C88.0326 70.3794 86.7022 71.234 86.7022 71.234L86.7086 71.2186C88.8612 68.4874 90.3191 65.186 90.8187 61.5768C90.8187 61.5768 95.1432 63.2701 96.8804 66.8927ZM44.9436 66.8912C43.5716 69.7519 40.5114 72.4932 37.5488 73.1102C34.5862 73.7272 30.2649 74.6351 30.4019 78.7042C30.4019 78.7042 32.6654 75.2345 36.5079 75.3544C39.1826 75.4375 42.4736 76.6055 44.7372 74.4811C47.0008 72.3563 49.1155 70.3779 51.5967 70.3779C53.7914 70.3779 55.1219 71.2326 55.1219 71.2326L55.1154 71.2171C52.9628 68.4854 51.5049 65.1846 51.0053 61.5753C51.0053 61.5753 46.6803 63.2686 44.9436 66.8912ZM44.9436 50.707C43.5716 47.8463 40.5114 45.105 37.5488 44.488C34.5862 43.871 30.2649 42.963 30.4019 38.8934C30.4019 38.8934 32.6654 42.3631 36.5079 42.2432C39.1826 42.1601 42.4736 40.9922 44.7372 43.117C47.0008 45.2419 49.1155 47.2202 51.5967 47.2202C53.7914 47.2202 55.1219 46.3656 55.1219 46.3656L55.1154 46.381C52.9628 49.1128 51.5049 52.4136 51.0053 56.0228C51.0053 56.0228 46.6803 54.3296 44.9436 50.707ZM80.237 55.4266C80.237 56.1071 79.6851 56.6592 79.0037 56.6592C78.3227 56.6592 77.7703 56.1076 77.7703 55.4266C77.7703 54.7461 78.3222 54.1946 79.0037 54.1946C79.6851 54.194 80.237 54.7461 80.237 55.4266ZM61.5755 55.4266C61.5755 56.1071 62.1273 56.6592 62.8088 56.6592C63.4897 56.6592 64.0422 56.1076 64.0422 55.4266C64.0422 54.7461 63.4903 54.1946 62.8088 54.1946C62.1279 54.194 61.5755 54.7461 61.5755 55.4266Z" stroke="#D97122" stroke-width="1.5" stroke-miterlimit="10" stroke-linecap="round" stroke-linejoin="round"/>
</svg>
